<svg xmlns="http://www.w3.org/2000/svg" xmlns:xlink="http://www.w3.org/1999/xlink" viewBox="0 0 389.3 389.61"><defs><style>.cls-1{fill:none;}.cls-2{fill:#e7e7e7;}.cls-3{fill:#ececec;}.cls-4{fill:#f5f5f5;}.cls-4,.cls-9{opacity:0.2;}.cls-13,.cls-5{fill:#007cff;}.cls-13,.cls-6{opacity:0.5;}.cls-15,.cls-17,.cls-7{fill:#fff;}.cls-8{fill:#824292;}.cls-10{fill:#1a2e35;}.cls-11,.cls-17{opacity:0.1;}.cls-12{clip-path:url(#clip-path);}.cls-14{clip-path:url(#clip-path-2);}.cls-15{opacity:0.3;}.cls-16{clip-path:url(#clip-path-3);}</style><clipPath id="clip-path"><path id="SVGID" class="cls-1" d="M155.07,113.57c12.06,16.25,37,19,61.56,21.41s49.07,0,52.43-8.34c-1.89,17.68-7.63,44-62.54,35.06C146,151.83,155.07,113.57,155.07,113.57Z"/></clipPath><clipPath id="clip-path-2"><path id="SVGID-2" data-name="SVGID" class="cls-1" d="M190.15,54.68c-2.14,6.23-10,12.38-20.27,13.11-5.83-2.43-19.24-24.72-17.28-37.41S179.69.92,184.72,0c4.61-.81-15.33,19.68-14.34,30.56S190.15,54.68,190.15,54.68Z"/></clipPath><clipPath id="clip-path-3"><path id="SVGID-3" data-name="SVGID" class="cls-1" d="M249.64,67.81c-.24,5.41,3.9,12.46,11.55,16.1,5.18-.1,22.11-13.1,24.42-23.39s-9.8-27.4-15.42-32.83c-3-2.91,5.81,19.64,1.79,27.65S249.64,67.81,249.64,67.81Z"/></clipPath></defs><g id="Capa_2" data-name="Capa 2"><g id="Capa_1-2" data-name="Capa 1"><path class="cls-2" d="M47,104.15s4.27-4.57,10.33-4.78c4.23-3.93,12.1-3.25,13.82-.67,6.21-4.13,13.09-5.46,19.23,2.31-.84-8.56-10.24-26.37-39.36-11.47-2.63-2.4-3.45-3.18-3.45-3.18s-1.19-3.43-2-3.59,0,3.79,0,3.79a6.25,6.25,0,0,0-2.28,0,6.16,6.16,0,0,0-2.08.91s-.87-3.92-1.52-3.47-.36,4.07-.36,4.07-.44,1-1.9,4.29c-32.63-2-34.15,18-31.5,26.22,2.53-9.57,9.36-11.1,16.71-9.79.54-3.06,7.49-6.82,12.94-4.9C41.3,101.66,47,104.15,47,104.15Z"/><path class="cls-2" d="M90,57.37a11.15,11.15,0,0,1,7.7-.2c3.68-1.31,8.4,1.22,8.78,3.29,5-.91,9.6.11,11.34,6.59,1.77-5.55.7-19.15-21.4-17.69-1-2.19-1.3-2.9-1.3-2.9s.18-2.45-.26-2.75-1,2.35-1,2.35a4.28,4.28,0,0,0-1.42-.61,4.16,4.16,0,0,0-1.54,0s.52-2.67,0-2.57-1.31,2.44-1.31,2.44-.55.53-2.33,2.16c-19.75-10-26.08,2.07-26.63,7.86,4.14-5.27,8.8-4.39,13-1.61,1.16-1.75,6.49-2.23,9.36.42A11.14,11.14,0,0,1,90,57.37Z"/><path class="cls-2" d="M355.65,126.14a11.11,11.11,0,0,1,7.71-.2c3.68-1.32,8.4,1.21,8.77,3.28,5-.9,9.61.12,11.34,6.59,1.78-5.54.7-19.14-21.4-17.68-1-2.2-1.29-2.9-1.29-2.9s.18-2.45-.26-2.76-1,2.36-1,2.36a3.83,3.83,0,0,0-3-.61s.51-2.67,0-2.56-1.31,2.43-1.31,2.43-.56.53-2.33,2.16c-19.76-10-26.08,2.07-26.63,7.87,4.14-5.28,8.8-4.39,13-1.61,1.16-1.76,6.49-2.23,9.36.42A11.13,11.13,0,0,1,355.65,126.14Z"/><path class="cls-2" d="M19.7,36.75A5,5,0,0,1,23,35.64c1.42-1,3.8-.58,4.23.27,2-1,4.17-1.22,5.77,1.35,0-2.63-2.22-8.37-11.58-4.82-.72-.82-.94-1.09-.94-1.09s-.25-1.08-.48-1.16-.13,1.16-.13,1.16a1.94,1.94,0,0,0-.69-.08,1.89,1.89,0,0,0-.66.2s-.13-1.22-.34-1.1-.25,1.22-.25,1.22-.17.3-.73,1.24c-9.86-1.73-11,4.34-10.47,6.91,1.09-2.82,3.22-3.06,5.41-2.41.27-.91,2.52-1.82,4.11-1A5,5,0,0,1,19.7,36.75Z"/><path class="cls-2" d="M338,49.54c-9.46,8.58-26.52,15.69-30.45-2.47a104.7,104.7,0,0,0,13.27,2.21c-.43,1.71,1.77,4.61,5.27,4.44,3.06-.15,4.87-2.3,3.43-3.9A75.86,75.86,0,0,0,338,49.54Z"/><path class="cls-2" d="M346.63,47.64a76.8,76.8,0,0,0,7.81-3.29c-.61,2,1.91,3.24,4.75,2.1,3.27-1.32,4-4.88,2.94-6.25a105.55,105.55,0,0,0,11.12-7.55C377.28,50.79,358.81,51.47,346.63,47.64Z"/><path class="cls-3" d="M300.44,61.12l-1.69,6.45c-3-4.08-4.68-8.15-4.78-11.43A22,22,0,0,0,300.44,61.12Z"/><path class="cls-3" d="M311.47,65.14l-8.13,7.58a40.42,40.42,0,0,1-3.82-4.15l1.82-7A41.86,41.86,0,0,0,311.47,65.14Z"/><path class="cls-3" d="M318.85,66.23l7,18.51A50,50,0,0,1,304.07,73.4l8.59-8A60.3,60.3,0,0,0,318.85,66.23Z"/><path class="cls-3" d="M337.23,65.48,328,85.23,327,85l-7-18.71A81,81,0,0,0,337.23,65.48Z"/><path class="cls-3" d="M341.75,64.71l14,19.33-.58.15a61.18,61.18,0,0,1-26.11,1.24l9.37-20.13C339.51,65.13,340.61,64.94,341.75,64.71Z"/><path class="cls-3" d="M361.5,59l-4.85,24.61L342.83,64.5c1.34-.26,2.73-.56,4.14-.89A88.63,88.63,0,0,0,361.5,59Z"/><path class="cls-3" d="M364,57.85l17.35,11.53c-5.14,6.07-12.91,11-23.67,14.12l4.93-25C363.08,58.28,363.54,58.06,364,57.85Z"/><path class="cls-3" d="M376.91,49.27l6.84,16.91c-.55.82-1.13,1.63-1.76,2.42L365.05,57.34A47.59,47.59,0,0,0,376.91,49.27Z"/><path class="cls-3" d="M385.54,27.73a62.29,62.29,0,0,1,2,6.23l-1.8-.54A13.47,13.47,0,0,0,385.54,27.73Z"/><path class="cls-3" d="M389.08,42.38l-7.8,1.85a25.8,25.8,0,0,0,4.28-9.82l2.26.69A50.25,50.25,0,0,1,389.08,42.38Z"/><path class="cls-3" d="M384.4,65.14l-6.72-16.63a34.68,34.68,0,0,0,2.68-3l8.81-2.09C389.77,51.3,388.3,58.72,384.4,65.14Z"/><ellipse id="_Path_" data-name="&lt;Path&gt;" class="cls-4" cx="193.89" cy="378.29" rx="193.89" ry="11.32"/><path class="cls-5" d="M151.85,369.69l-15.8,1.17-.44-5.85L149.86,364l-.44-6L135.17,359l-.35-4.71,15.36-1.13-.46-6.33-24.55,1.81,1.66,22.48H152Z"/><path class="cls-5" d="M181.49,365.62a13.14,13.14,0,0,0-1.43-1.75,8.61,8.61,0,0,0-1.57-1.44,9.29,9.29,0,0,0-2.47-.93,11,11,0,0,0,3.13-1.4A8.69,8.69,0,0,0,180.84,348a6.9,6.9,0,0,0-3.82-2.43,22.26,22.26,0,0,0-6.54-.26l-15.26,1.13,1.82,24.7h9.25l-.58-7.77.81-.05a3.83,3.83,0,0,1,2.29.51,7,7,0,0,1,1.83,2.16l3.3,5.15h10.91Zm-8.52-9.8a2.43,2.43,0,0,1-1.41,1,13.77,13.77,0,0,1-2.4.59l-3.86.28-.45-6,4-.29a5.5,5.5,0,0,1,3.47.52,2.73,2.73,0,0,1,1.08,2.13A2.81,2.81,0,0,1,173,355.82Z"/><path class="cls-5" d="M213.69,363.25a11,11,0,0,0-1.42-1.75,6.24,6.24,0,0,0-4-2.37,10.9,10.9,0,0,0,3.12-1.41,7.92,7.92,0,0,0,3.43-7.45,8.17,8.17,0,0,0-1.74-4.7,7,7,0,0,0-3.81-2.43,21.71,21.71,0,0,0-6.54-.24L187.42,344l2,27.07h9.24L197.92,361l.81-.06a3.76,3.76,0,0,1,2.29.52,6.81,6.81,0,0,1,1.83,2.17l4.81,7.51H218.5Zm-8.51-9.81a2.42,2.42,0,0,1-1.42,1.05,15.37,15.37,0,0,1-2.39.57l-3.87.29-.44-6,4-.3a5.45,5.45,0,0,1,3.47.51,3,3,0,0,1,.63,3.9Z"/><path class="cls-5" d="M263.8,352.91c-.35-4.77-2-8.37-4.83-10.83s-6.76-3.49-11.69-3.14-8.47,2-11,4.88-3.57,6.76-3.21,11.6a16.84,16.84,0,0,0,2.67,8.5,12.53,12.53,0,0,0,5.71,4.66,18.81,18.81,0,0,0,8.41,1,16.68,16.68,0,0,0,8.11-2.46,12.46,12.46,0,0,0,4.67-5.54A18.29,18.29,0,0,0,263.8,352.91Zm-10.28,7.57a6.32,6.32,0,0,1-9.11.63c-1.2-1.22-1.92-3.33-2.14-6.32s.18-5.23,1.2-6.61a5.56,5.56,0,0,1,4.3-2.3,5.76,5.76,0,0,1,4.72,1.6c1.22,1.2,1.94,3.19,2.14,6C254.88,356.79,254.5,359.12,253.52,360.48Z"/><path class="cls-5" d="M295.63,356.89a9.12,9.12,0,0,0,.57-9.07,6.87,6.87,0,0,0-3.34-3.05,21.93,21.93,0,0,0-6.41-1.37l-15.22-1.5-2.9,29.19h9.28l1.06-10.72.8.08a3.86,3.86,0,0,1,2.17.92,6.7,6.7,0,0,1,1.43,2.44l3.06,7.28h10l-2.28-5.75a11.32,11.32,0,0,0-1.1-2,8.79,8.79,0,0,0-1.3-1.7,9,9,0,0,0-2.28-1.33,11.11,11.11,0,0,0,3.33-.86A8.22,8.22,0,0,0,295.63,356.89Zm-7.78-4.32a2.73,2.73,0,0,1-.74,1.65,2.5,2.5,0,0,1-1.58.79,12.63,12.63,0,0,1-2.46.15l-3.85-.37.59-6,4,.39a5.56,5.56,0,0,1,3.33,1.1A2.79,2.79,0,0,1,287.85,352.57Z"/><g class="cls-6"><path class="cls-7" d="M151.85,369.69l-15.8,1.17-.44-5.85L149.86,364l-.44-6L135.17,359l-.35-4.71,15.36-1.13-.46-6.33-24.55,1.81,1.66,22.48H152Z"/><path class="cls-7" d="M181.49,365.62a13.14,13.14,0,0,0-1.43-1.75,8.61,8.61,0,0,0-1.57-1.44,9.29,9.29,0,0,0-2.47-.93,11,11,0,0,0,3.13-1.4A8.69,8.69,0,0,0,180.84,348a6.9,6.9,0,0,0-3.82-2.43,22.26,22.26,0,0,0-6.54-.26l-15.26,1.13,1.82,24.7h9.25l-.58-7.77.81-.05a3.83,3.83,0,0,1,2.29.51,7,7,0,0,1,1.83,2.16l3.3,5.15h10.91Zm-8.52-9.8a2.43,2.43,0,0,1-1.41,1,13.77,13.77,0,0,1-2.4.59l-3.86.28-.45-6,4-.29a5.5,5.5,0,0,1,3.47.52,2.73,2.73,0,0,1,1.08,2.13A2.81,2.81,0,0,1,173,355.82Z"/><path class="cls-7" d="M213.69,363.25a11,11,0,0,0-1.42-1.75,6.24,6.24,0,0,0-4-2.37,10.9,10.9,0,0,0,3.12-1.41,7.92,7.92,0,0,0,3.43-7.45,8.17,8.17,0,0,0-1.74-4.7,7,7,0,0,0-3.81-2.43,21.71,21.71,0,0,0-6.54-.24L187.42,344l2,27.07h9.24L197.92,361l.81-.06a3.76,3.76,0,0,1,2.29.52,6.81,6.81,0,0,1,1.83,2.17l4.81,7.51H218.5Zm-8.51-9.81a2.42,2.42,0,0,1-1.42,1.05,15.37,15.37,0,0,1-2.39.57l-3.87.29-.44-6,4-.3a5.45,5.45,0,0,1,3.47.51,3,3,0,0,1,.63,3.9Z"/><path class="cls-7" d="M263.8,352.91c-.35-4.77-2-8.37-4.83-10.83s-6.76-3.49-11.69-3.14-8.47,2-11,4.88-3.57,6.76-3.21,11.6a16.84,16.84,0,0,0,2.67,8.5,12.53,12.53,0,0,0,5.71,4.66,18.81,18.81,0,0,0,8.41,1,16.68,16.68,0,0,0,8.11-2.46,12.46,12.46,0,0,0,4.67-5.54A18.29,18.29,0,0,0,263.8,352.91Zm-10.28,7.57a6.32,6.32,0,0,1-9.11.63c-1.2-1.22-1.92-3.33-2.14-6.32s.18-5.23,1.2-6.61a5.56,5.56,0,0,1,4.3-2.3,5.76,5.76,0,0,1,4.72,1.6c1.22,1.2,1.94,3.19,2.14,6C254.88,356.79,254.5,359.12,253.52,360.48Z"/><path class="cls-7" d="M295.63,356.89a9.12,9.12,0,0,0,.57-9.07,6.87,6.87,0,0,0-3.34-3.05,21.93,21.93,0,0,0-6.41-1.37l-15.22-1.5-2.9,29.19h9.28l1.06-10.72.8.08a3.86,3.86,0,0,1,2.17.92,6.7,6.7,0,0,1,1.43,2.44l3.06,7.28h10l-2.28-5.75a11.32,11.32,0,0,0-1.1-2,8.79,8.79,0,0,0-1.3-1.7,9,9,0,0,0-2.28-1.33,11.11,11.11,0,0,0,3.33-.86A8.22,8.22,0,0,0,295.63,356.89Zm-7.78-4.32a2.73,2.73,0,0,1-.74,1.65,2.5,2.5,0,0,1-1.58.79,12.63,12.63,0,0,1-2.46.15l-3.85-.37.59-6,4,.39a5.56,5.56,0,0,1,3.33,1.1A2.79,2.79,0,0,1,287.85,352.57Z"/></g><path class="cls-8" d="M251.17,298.79c2,2.68,3.31,9.1-.06,9.87s-2-9.7-2-9.7C248.25,298.07,249,295.85,251.17,298.79Z"/><path class="cls-8" d="M243.81,353.53c2.11,1.49,4.7,5.88,2.42,7.29s-3.89-6.65-3.89-6.65C241.48,353.73,241.49,351.91,243.81,353.53Z"/><path class="cls-8" d="M205.26,355.36c-.14,2.58-2.5,7.1-4.9,5.91s3.58-6.82,3.58-6.82C203.86,353.49,205.41,352.53,205.26,355.36Z"/><path class="cls-8" d="M250.12,294.5c3.36.46,7.65,4.11,4.19,7.2s-6.43-5.54-6.43-5.54C246.52,296.17,246.42,294,250.12,294.5Z"/><path class="cls-8" d="M250.08,297.86c3.09,17.24-6.51,36.59-3.69,55.14.77,5.11-7.39-.26-7.39-.26s-19-1.85-24.1.13c-.88,4.79-14.38,8-15.19-1.19s-1.58-32-1.58-32S235.75,293.75,250.08,297.86Z"/><path class="cls-9" d="M204.67,315.41c-4,2.52-6.53,4.26-6.53,4.26s.22,6.65.55,14.21c8.78-5.35,16.26-14,16.26-14A41,41,0,0,0,204.67,315.41Z"/><path class="cls-8" d="M203.82,353.79c-.7,9.15-9.2,22.17-6.14,26s53.28,3.51,60,0-15.31-18-15-30.13C204.53,339.72,203.82,353.79,203.82,353.79Z"/><path class="cls-10" d="M204,376.37c-4.49-4.49-12.26.11-13.43,5.51,8.91,1.87,15.07-.82,15.07-.82A6.28,6.28,0,0,0,204,376.37Z"/><path class="cls-10" d="M252.78,375.21c4.49-4.49,12.26.12,13.43,5.51-8.91,1.88-15.07-.82-15.07-.82A6.29,6.29,0,0,1,252.78,375.21Z"/><path class="cls-10" d="M242,376.23c4.24-5.38,11.58.14,12.69,6.62-8.42,2.25-14.24-1-14.24-1A9,9,0,0,1,242,376.23Z"/><path class="cls-10" d="M232.25,375.55c9.87-1.41,11.46,3,7.68,8.57-10.52.17-12.14-2.26-12.14-2.26S225.28,376.54,232.25,375.55Z"/><path class="cls-8" d="M110.5,266.47c-3.21.81-8.34,4.91-6.23,7.65S112,267.9,112,267.9C113.21,267.76,114,265.57,110.5,266.47Z"/><path class="cls-8" d="M85.09,311.11c-2.51.6-6.54,3.73-4.94,5.88s6.07-4.75,6.07-4.75C87.18,312.15,87.84,310.46,85.09,311.11Z"/><path class="cls-8" d="M117,335.78c-1.66,2-3,6.89-.46,7.66s2-7.43,2-7.43C119.32,335.37,118.84,333.61,117,335.78Z"/><path class="cls-8" d="M142.77,312.24c-1.89,1.75-3.87,6.45-1.41,7.54s2.95-7.11,2.95-7.11C145.11,312.12,144.85,310.31,142.77,312.24Z"/><path class="cls-8" d="M114,263.82c-2.89-1.78-8.52-1.69-7.82,2.9s8.49-.2,8.49-.2C115.76,267.4,117.22,265.77,114,263.82Z"/><path class="cls-8" d="M124.33,255.83C111,267.16,99,296.19,85,308.71c-3.85,3.45,5.86,4.5,5.86,4.5s18.13,8.37,20.81,13.14c-2.38,4.26,6,15.31,12.47,8.76s21.6-23.68,21.6-23.68S138,261.79,124.33,255.83Z"/><path class="cls-10" d="M58.57,342.17c-3.69-5.16-12.11-1.89-14.15,3.24,8.49,3.31,15,1.65,15,1.65A6.26,6.26,0,0,0,58.57,342.17Z"/><path class="cls-8" d="M118.47,335.15c-6,7-1.64,31.8-6.24,33.6S33.89,357,60.48,338.44C66.68,334.13,80.84,322.33,85,311,124.13,315.75,118.47,335.15,118.47,335.15Z"/><path class="cls-10" d="M109.8,362.6c5.55,3.08,3.26,11.81-1.61,14.42-4.25-8-3.35-14.71-3.35-14.71A6.26,6.26,0,0,1,109.8,362.6Z"/><path class="cls-10" d="M64.56,348.17c-3.88-7.79-13.84-2.54-16.69,3.15,6.13,6.2,15.18,2.49,15.18,2.49S65.88,350.82,64.56,348.17Z"/><path class="cls-10" d="M72.59,352.67c-8.17-5.7-15.09.89-14.23,7.57,9.32,4.89,15.37.08,15.37.08S78.37,356.7,72.59,352.67Z"/><path class="cls-8" d="M176.31,325.54c51.31,8.81,86.59-23.89,125.3-103.78,21.54-44.46-4.65-75-19-80.72,6.5-14.35-.06-36.42-9.5-45.89,3.54,3,9.06-.11,9.06-.11-7-3.81-16.39-38.27-58.3-46.42-38.23-7.43-57.48,13.93-71.43,21.77,0,0,3.1,5.64,9.49,5.67-12.06,5.78-23.24,21.71-24.25,40.1-15.45.56-46.85,20.39-44.86,69.75C96.39,274.61,125,316.72,176.31,325.54Z"/><path class="cls-11" d="M162.59,104.73c13.39-1.78,26.73,2.08,33,7.7C182.42,107,162.59,104.73,162.59,104.73Z"/><path class="cls-11" d="M224.82,121.93c11.47-2.4,23.26.08,29.08,4.55C242.12,122.62,224.82,121.93,224.82,121.93Z"/><path class="cls-11" d="M178.26,112.43c5.13-2.71,10.85-2.21,14.87,1.3A93.9,93.9,0,0,0,178.26,112.43Z"/><path class="cls-9" d="M92.76,184.66c9.3-10.85,16.9-25.88,18.31-35.17a64.39,64.39,0,0,0-13.4,2.31C94.32,160.81,92.38,171.7,92.76,184.66Z"/><path class="cls-9" d="M309.58,183.78a67.69,67.69,0,0,0-10.37-4.55c-.9,8.09,1.57,21.53,6.26,33.36A68.44,68.44,0,0,0,309.58,183.78Z"/><path class="cls-11" d="M165.42,113.58c-2.26-4.65-6.43-7.63-10.94-7.48-3.29.12-12.63.53-5.8,16.18C156.25,139.63,175.07,133.37,165.42,113.58Z"/><path class="cls-11" d="M267,120.88c3.86-1.7,7.28-1,8.74,2.23,1.06,2.32,4,9-8.69,15.26C253,145.35,250.62,128.15,267,120.88Z"/><path class="cls-7" d="M205.57,106.65a11.92,11.92,0,0,1-3.09,4.3,3.81,3.81,0,0,1-4.83.16,45.73,45.73,0,0,0-19.84-8A3.84,3.84,0,0,1,175,97.62l0-.05C182.88,82.3,211.7,92,205.57,106.65Z"/><path class="cls-10" d="M193.54,96.81c4.84-5.83,14.29,1.61,11,7.24C200.76,110.43,187.56,104,193.54,96.81Z"/><path class="cls-7" d="M250.13,120.89a116.75,116.75,0,0,0-25.34-1,7.47,7.47,0,0,1-7-3.65A15.92,15.92,0,0,1,215.9,111c-3.44-20.76,36.72-24.5,42.23-2.4a26.23,26.23,0,0,1,.72,4.25A7.52,7.52,0,0,1,250.13,120.89Z"/><path class="cls-10" d="M230,105.2c-2.34-3.33-8.79-.11-6.88,3.12S233.12,109.6,230,105.2Z"/><path class="cls-10" d="M155.07,113.57c12.06,16.25,37,19,61.56,21.41s49.07,0,52.43-8.34c-1.89,17.68-7.63,44-62.54,35.06C146,151.83,155.07,113.57,155.07,113.57Z"/><g class="cls-12"><path class="cls-13" d="M150.13,145.35c14.25-8.16,35.46-9.33,58.31,4.5,13.29-4.44,41.14-7.72,50.18,17.91C199.28,180.74,150.13,145.35,150.13,145.35Z"/><path class="cls-7" d="M210.69,133.1c-1.3,4.77-6.92,8.33-11.47,7.19a8.79,8.79,0,0,1-7-9.17Z"/><path class="cls-7" d="M187.81,130.06c-1.9,4-7.85,5.85-11.25,4.55-4.48-1.72-4.73-9.19-4.73-9.19Z"/><path class="cls-7" d="M171.28,123.65c-2.48,2.56-7.26,2.83-9.73.53a6.33,6.33,0,0,1-1.21-8.22Z"/><path class="cls-7" d="M216.18,134c.45,4.41,4.95,7.29,9.08,8,3.77.68,7.53-7.09,7.53-7.09Z"/><path class="cls-7" d="M238.19,133.87c.86,3.45,3.62,6.19,5.61,5.56,3.35-1.06,2.63-6.26,2.63-6.26Z"/><path class="cls-7" d="M252.64,133a4.91,4.91,0,0,0,5.76,2.85,4.18,4.18,0,0,0,2.86-4.67Z"/><path class="cls-7" d="M201.11,164c1.26-4.78,6.86-8.38,11.42-7.28a8.81,8.81,0,0,1,7.06,9.12Z"/><path class="cls-7" d="M227.92,166.38c.13-4.43,4.86-8.5,8.49-8.66,4.79-.22,8,6.53,8,6.53Z"/><path class="cls-7" d="M248.34,161.67c-.12-4.77,1.71-9.22,3.73-9,3.4.34,4.11,7.35,4.11,7.35Z"/><path class="cls-7" d="M191.32,161c1-5.53-2.42-10.29-6.23-12.33-3.48-1.86-9.78,6.65-9.78,6.65Z"/><path class="cls-7" d="M169.63,149.26c1.29-3.32.62-7.15-1.37-7.78-3.35-1.06-5.76,3.59-5.76,3.59Z"/><path class="cls-7" d="M164.5,145.15a4.91,4.91,0,0,0-.84-6.37,4.17,4.17,0,0,0-5.47.22Z"/></g><path class="cls-8" d="M147,89.35c-5.77,7.78-10.8,13.83-13.39,15.05,5.41,2.61,8.83.5,8.83.5S153.32,80.83,147,89.35Z"/><path class="cls-8" d="M238.56,53c-7.21-5.9-24.66-4.11-36.32-15.53-2.07,5.64,2.46,9.72,2.46,9.72S246.76,59.71,238.56,53Z"/><path class="cls-8" d="M239,53c-4.39-5.71-15.45-3.46-22.51-14.55a12.37,12.37,0,0,0,1.3,9.64S244,59.51,239,53Z"/><path class="cls-8" d="M48.8,153.58c-8.62,3.54-15.33,19.74-30.93,24.57,4,4.5,9.73,2.46,9.73,2.46S58.62,149.56,48.8,153.58Z"/><path class="cls-8" d="M29.26,232.67c0,20.88,12.09,21.45,11.63,37.77,5.54-2.31,7.1-9,7.1-9S29.26,222.06,29.26,232.67Z"/><path class="cls-8" d="M359.56,192.3c5.52,7.51,10.36,20.59,22.28,37.84-5.17,3.06-10-3.87-10-3.87S353.27,183.75,359.56,192.3Z"/><path class="cls-8" d="M49.64,152.09c-6.77,2.45-17.71,20.09-30.83,21a12.41,12.41,0,0,0,9.1,3.44S45.06,168.59,49.64,152.09Z"/><path class="cls-8" d="M71.33,202.27c5.87,4.18,4,15.32,15.39,21.95a12.39,12.39,0,0,1-9.68-.93S64.64,197.52,71.33,202.27Z"/><path class="cls-10" d="M190.15,54.68c-2.14,6.23-10,12.38-20.27,13.11-5.83-2.43-19.24-24.72-17.28-37.41S179.69.92,184.72,0c4.61-.81-15.33,19.68-14.34,30.56S190.15,54.68,190.15,54.68Z"/><path class="cls-10" d="M249.64,67.81c-.24,5.41,3.9,12.46,11.55,16.1,5.18-.1,22.11-13.1,24.42-23.39s-9.8-27.4-15.42-32.83c-3-2.91,5.81,19.64,1.79,27.65S249.64,67.81,249.64,67.81Z"/><g class="cls-14"><path class="cls-15" d="M162.38,66.19a1.5,1.5,0,0,1-1-.37,2,2,0,0,1-.65-1.36,6.68,6.68,0,0,1,2.39-5.71,20.26,20.26,0,0,1,4.44-2.86l.76-.4a57.38,57.38,0,0,0,10.9-7.57c1.42-1.25,2.75-2.64,2.95-4.37a.87.87,0,0,0-.08-.63,1.07,1.07,0,0,0-.77-.26c-4.91-.36-9.6,2.4-13.13,4.85l-1.91,1.34c-3.33,2.37-6.77,4.82-10.78,5.89a7.38,7.38,0,0,1-4.3.11,3.74,3.74,0,0,1-2.72-3.37c0-1.59,1.16-3,3.45-4.17a60.38,60.38,0,0,1,8.31-3.26c1.28-.42,2.55-.85,3.81-1.32,3.41-1.26,7.71-3.16,10.66-6.65.6-.71,1.24-1.74.89-2.6a2.27,2.27,0,0,0-1-1c-1.53-.93-3.56-1.16-6.2-.71a22.42,22.42,0,0,0-11,5.27c-.57.5-1.11,1-1.66,1.56a18.59,18.59,0,0,1-4.57,3.6c-2.53,1.25-6.19,1-7.68-1.47-1.25-2.1-.38-4.78,1.13-6.34a12.28,12.28,0,0,1,5.82-3c2.56-.7,5.22-1.17,7.8-1.62,4.06-.72,8.25-1.45,12.05-3.12a12.06,12.06,0,0,0,3.61-2.26,1.42,1.42,0,0,0,.5-.78.62.62,0,0,0-.15-.49,2.9,2.9,0,0,0-1.94-.63c-5.77-.1-11.62-.1-17.37,0-2.16.05-3.53-.72-3.65-2-.07-.86.45-1.67,1.6-2.46a21.88,21.88,0,0,1,11.37-3.83,43.07,43.07,0,0,1,7.63.58,35.28,35.28,0,0,0,8.82.47,3,3,0,0,0,2.18-1c.67-1-.22-2.5-1.39-3.4-2.33-1.78-5.14-2.57-8.11-3.4a40.21,40.21,0,0,1-5.49-1.84,2.89,2.89,0,0,1-1.64-1.73,1.15,1.15,0,0,1,.3-1,1.86,1.86,0,0,1,1-.5A20.87,20.87,0,0,1,182.14,4.3c2.21,1.21,3.43,2.71,3.51,4.35a.4.4,0,0,1-.38.41.41.41,0,0,1-.42-.38C184.77,7,183.12,5.74,181.76,5a20,20,0,0,0-14-1.88,1.18,1.18,0,0,0-.62.26.37.37,0,0,0-.1.36,2.16,2.16,0,0,0,1.18,1.17,40.09,40.09,0,0,0,5.39,1.8c2.91.81,5.92,1.66,8.37,3.53,1.5,1.14,2.51,3,1.57,4.47a3.68,3.68,0,0,1-2.75,1.3,36.27,36.27,0,0,1-9-.46,42.7,42.7,0,0,0-7.48-.58,21.1,21.1,0,0,0-11,3.69c-.9.62-1.31,1.19-1.26,1.74.12,1.28,2.4,1.29,2.85,1.3,5.76-.08,11.61-.08,17.39,0a3.62,3.62,0,0,1,2.52.89,1.37,1.37,0,0,1,.35,1.1,2.17,2.17,0,0,1-.74,1.27,12.75,12.75,0,0,1-3.84,2.41c-3.89,1.71-8.13,2.45-12.23,3.18-2.56.44-5.21.91-7.73,1.6a11.75,11.75,0,0,0-5.46,2.77c-1.27,1.32-2.06,3.66-1,5.4,1.26,2.12,4.43,2.26,6.65,1.16a18.52,18.52,0,0,0,4.37-3.45c.55-.54,1.11-1.08,1.69-1.59A23.23,23.23,0,0,1,168.28,31c2.85-.49,5.06-.22,6.75.81a2.94,2.94,0,0,1,1.29,1.37c.4,1,.05,2.15-1,3.41-3.08,3.63-7.49,5.59-11,6.88-1.26.47-2.54.9-3.82,1.33A60,60,0,0,0,152.28,48c-2,1-3,2.19-3,3.46a3,3,0,0,0,2.18,2.62,6.72,6.72,0,0,0,3.85-.12c3.87-1,7.25-3.44,10.53-5.77.63-.46,1.27-.91,1.91-1.35,3.64-2.52,8.48-5.37,13.64-5a1.76,1.76,0,0,1,1.33.56,1.59,1.59,0,0,1,.25,1.21c-.23,2-1.68,3.52-3.21,4.87a58.07,58.07,0,0,1-11.05,7.68l-.77.41a19.46,19.46,0,0,0-4.28,2.73,5.91,5.91,0,0,0-2.14,5,1.36,1.36,0,0,0,.38.87c.61.51,1.7-.24,2.15-.59l2.28-1.81A141.69,141.69,0,0,1,181.6,51.76c7.14-4.24,14.07-6.55,20.6-6.84a.39.39,0,0,1,.42.37.4.4,0,0,1-.38.42C195.84,46,189,48.27,182,52.44a140.56,140.56,0,0,0-15.19,11l-2.29,1.81A3.68,3.68,0,0,1,162.38,66.19Z"/></g><g class="cls-16"><path class="cls-15" d="M271.46,85.76a3.46,3.46,0,0,1-2.06-1.11l-.24-.21A27.19,27.19,0,0,0,266,82.31c-3.73-2.29-8.36-5.14-11.12-13-2-5.74-9.42-8-15.94-9.92l-2.05-.62a.4.4,0,0,1,.23-.76l2,.62c6.71,2,14.3,4.3,16.47,10.42,2.67,7.56,7.17,10.33,10.78,12.56a26.13,26.13,0,0,1,3.24,2.2l.25.21c.58.51,1.24,1.08,1.78.88a1,1,0,0,0,.52-.57c.59-1.25.22-2.94-1-4.52a20.35,20.35,0,0,0-3.53-3.32l-.65-.53a59.4,59.4,0,0,1-9-9.07c-1.19-1.5-2.27-3.13-2.05-4.83a1.32,1.32,0,0,1,.54-1,1.93,1.93,0,0,1,1.4-.11c5,1,9.09,4.58,12.06,7.56.52.52,1,1,1.55,1.58,2.66,2.74,5.4,5.57,8.92,7.41a8,8,0,0,0,3.7,1.11h0c1.11,0,2.37-.52,2.64-1.5.33-1.22-1-2.58-2.17-3.51a66.08,66.08,0,0,0-7.23-4.73c-1.14-.68-2.28-1.36-3.4-2.06-3.1-2-6.94-4.69-9.12-8.42-1-1.68-.66-2.64-.22-3.14a2.84,2.84,0,0,1,1.56-.79,11,11,0,0,1,6.66,1.1,25.26,25.26,0,0,1,9.8,7.35c.44.56.86,1.14,1.28,1.72a17.68,17.68,0,0,0,3.48,3.93c1.92,1.48,5.08,2.16,6.71.81,1.34-1.11,1.1-3.11.16-4.5a12.65,12.65,0,0,0-4.68-3.66c-2.29-1.22-4.75-2.28-7.12-3.31a61.56,61.56,0,0,1-11.12-5.74,13.31,13.31,0,0,1-3.17-2.94,1.81,1.81,0,0,1-.45-1.28,1.13,1.13,0,0,1,.49-.8A3.73,3.73,0,0,1,271,47c5.58,1.41,11.23,2.92,16.8,4.5,1.31.36,2.75.43,3-.27.15-.38-.13-.94-.83-1.64a24,24,0,0,0-9.81-5.84,51.3,51.3,0,0,0-7.36-1.48,43.34,43.34,0,0,1-8.8-2,4,4,0,0,1-2.36-1.77,1.75,1.75,0,0,1,0-1.45,4.23,4.23,0,0,1,2.51-1.88c2.78-.88,5.86-.78,8.85-.68a47.49,47.49,0,0,0,5.6-.06,2,2,0,0,0,1.37-.62.2.2,0,0,0,0-.2,1.4,1.4,0,0,0-.55-.38,23.57,23.57,0,0,0-13.95-2.11c-1.47.24-3.32.81-3.75,2.12a.4.4,0,0,1-.75-.25c.44-1.34,1.95-2.25,4.37-2.66a24.44,24.44,0,0,1,14.43,2.19,1.94,1.94,0,0,1,.86.66,1,1,0,0,1,.08,1,2.61,2.61,0,0,1-2,1.06,45.16,45.16,0,0,1-5.7.06c-3.05-.1-5.93-.19-8.58.65a3.31,3.31,0,0,0-2,1.45,1,1,0,0,0,0,.81,3.39,3.39,0,0,0,1.91,1.34A43.33,43.33,0,0,0,273,41.53,51.23,51.23,0,0,1,280.44,43a24.8,24.8,0,0,1,10.14,6c.35.35,1.42,1.43,1,2.49s-1.9,1.33-4,.74c-5.56-1.57-11.2-3.08-16.77-4.5a3.08,3.08,0,0,0-2.09,0,.3.3,0,0,0-.16.25,1.19,1.19,0,0,0,.31.7,12.37,12.37,0,0,0,3,2.76,60.58,60.58,0,0,0,11,5.66c2.38,1,4.85,2.11,7.17,3.34a13.44,13.44,0,0,1,5,3.92c1.13,1.69,1.39,4.14-.32,5.55-2,1.64-5.54.87-7.7-.79a18.65,18.65,0,0,1-3.63-4.09c-.41-.57-.82-1.14-1.26-1.69a24.49,24.49,0,0,0-9.49-7.13,10.4,10.4,0,0,0-6.18-1,2,2,0,0,0-1.13.53c-.49.56-.1,1.51.31,2.22,2.09,3.58,5.83,6.24,8.85,8.15,1.11.7,2.25,1.37,3.39,2A66.59,66.59,0,0,1,285.16,73c2,1.56,2.8,3,2.44,4.34a3.36,3.36,0,0,1-3.4,2.08h0a8.74,8.74,0,0,1-4.07-1.2c-3.63-1.9-6.42-4.77-9.12-7.55l-1.54-1.58c-2.89-2.9-6.82-6.36-11.66-7.34a1.32,1.32,0,0,0-.81,0c-.1.06-.16.19-.19.41-.17,1.42.81,2.88,1.89,4.25a59.2,59.2,0,0,0,8.89,8.95l.65.53a20.74,20.74,0,0,1,3.66,3.46c1.38,1.81,1.78,3.8,1.07,5.33a1.75,1.75,0,0,1-1,1A1.39,1.39,0,0,1,271.46,85.76Z"/></g><path class="cls-10" d="M180.31,89.27c24.08,9.29,26.42,15.86,28.81,13.27s1.17-13.7-4.43-18.24-8-2.28-6.48-.47c-8.08-5.89-17.21-6.69-20-5.78s.44,2.9.44,2.9S161.81,82.13,180.31,89.27Z"/><path class="cls-10" d="M254.61,103.73c-32.92-.53-38.28,4.72-40.21,1.39s3.78-13.26,12.33-15.36,10.68.94,8.1,2c12.09-2.41,23.55.33,26.65,2.27s-1.64,2.54-1.64,2.54S279.91,104.14,254.61,103.73Z"/><path class="cls-8" d="M188.7,54.48c-1.32-3-1.21-9.6,2.24-9.6s-.21,9.89-.21,9.89C191.38,55.84,190.15,57.83,188.7,54.48Z"/><path class="cls-8" d="M139,119.63c-2.91-1.6-6.82-6.87-4.09-9s5.87,8,5.87,8C141.92,119.07,142.15,121.39,139,119.63Z"/><path class="cls-8" d="M189.17,56.53c-3-1.34-7.41-6.23-4.88-8.57s6.57,7.41,6.57,7.41C192.06,55.71,192.5,58,189.17,56.53Z"/><path class="cls-8" d="M251.43,69.57c4.47-1.22,11.52-7.08,8.51-10.84s-10.6,8.88-10.6,8.88C247.61,67.83,246.52,70.92,251.43,69.57Z"/><path class="cls-17" d="M203.43,170c49.49,7.38,66.27,30.67,62.89,49.89-2.71,15.47-9.33,4.25-9.33,4.25s2,36.54-19.17,54.95c-6.74,5.85-5.46-2.78-5.46-2.78S211.52,312.5,186.09,309c-37.18-5.08-38.72-43.73-38.72-43.73s-7.2,10.89-13.11-4.76c-6.5-17.24-6.64-40,1.71-57C124.24,210.69,121.82,157.84,203.43,170Z"/><path class="cls-17" d="M205.27,173.63c-38.27-7.07-56.43,3.9-58.74,17.05-1.86,10.59,5.81,5,5.81,5s-10.61,23,.41,39.88c3.5,5.36,4.71-.48,4.71-.48s6.32,28.22,25.9,32c28.64,5.61,36.72-19.63,36.72-19.63s4.73,11.31,12.67,1,13.7-27.8,13.81-37.18C253.42,218.66,268.38,185.27,205.27,173.63Z"/><path class="cls-8" d="M137.46,160.68c-.22.46-.42.55-.62.54l-.59,0-1.17,0h-2.37l-2.37.12c-.8,0-1.59.15-2.39.21a61.38,61.38,0,0,0-9.63,1.9,82.63,82.63,0,0,0-19.26,8.41,116,116,0,0,0-18.18,13.38A140.87,140.87,0,0,0,64.77,202l4.88-14.05.74,5.67.94,5.49c.4,1.76.76,3.55,1.18,5.25s.87,3.38,1.42,4.91a44.5,44.5,0,0,0,3.46,8.28,16.26,16.26,0,0,0,.93,1.53,4,4,0,0,0,.45.62,6.55,6.55,0,0,0,.42.53l.37.36a1.76,1.76,0,0,0,.26.14c.05.05,0-.05.05-.08a.19.19,0,0,0,0-.14,3.17,3.17,0,0,0-.21-.41l-.34-.48-.2-.25-.4-.45-.46-.48a27.75,27.75,0,0,1-39.35,39.13l-.59-.63-.54-.6-.46-.56-.87-1.1q-.61-.85-1.2-1.71c-.36-.54-.63-1-.94-1.49s-.63-1-.85-1.44c-.48-.88-1-1.81-1.41-2.67l-1.16-2.51c-.38-.85-.66-1.61-1-2.42s-.64-1.61-.88-2.36c-.5-1.52-1.07-3.1-1.44-4.55a98.7,98.7,0,0,1-3.2-16.94c-.35-2.73-.44-5.34-.62-8s-.13-5.17-.17-7.74.11-5.05.21-7.54l.49-7.38.23-3.48a17,17,0,0,1,4.65-10.58,185.55,185.55,0,0,1,20.93-22.79,161.27,161.27,0,0,1,25.29-19,125,125,0,0,1,30.32-13.35,107.79,107.79,0,0,1,17-3.39c1.45-.15,2.91-.31,4.37-.42s2.93-.18,4.4-.22,2.95,0,4.43,0l2.21.08,1.11,0a1.28,1.28,0,0,1,1.07.61,33.76,33.76,0,0,1,2.67,34.2Z"/><path class="cls-8" d="M280.83,140.24a1,1,0,0,1,1-.32l.9.23,1.81.47,3.62,1c2.4.71,4.8,1.47,7.18,2.31a145.24,145.24,0,0,1,14.11,5.79,128.23,128.23,0,0,1,26.28,16.53,120.3,120.3,0,0,1,21.61,23,118.92,118.92,0,0,1,14.71,27.82l.29.8a21,21,0,0,1,.4,13.28h0a63.93,63.93,0,0,1-2.69,9.17,74.52,74.52,0,0,1-3.67,8.06c-1.34,2.51-2.77,4.87-4.26,7.13s-3,4.34-4.63,6.36a117,117,0,0,1-10,11.12c-1.75,1.71-3.53,3.37-5.39,5-.93.81-1.87,1.61-2.87,2.42l-1.53,1.22-.84.63c-.35.26-.5.39-1.15.82A27.75,27.75,0,0,1,307,235.62c-.24.18,0,0,.07,0l.37-.15.85-.39c.6-.27,1.22-.59,1.84-.91,1.24-.65,2.49-1.35,3.7-2.08a70,70,0,0,0,6.79-4.61c1-.79,2-1.59,2.88-2.37s1.67-1.55,2.39-2.28,1.3-1.41,1.84-2l1.28-1.63h0l.69,14.07a76,76,0,0,0-9.51-17.06,74.34,74.34,0,0,0-13.52-14,86,86,0,0,0-17-10.51,95.47,95.47,0,0,0-9.56-3.87c-1.64-.58-3.31-1.09-5-1.59l-2.54-.71-1.29-.32-.64-.17c-.22-.05-.41-.2-.51-.71l-1.38-6.75A40,40,0,0,1,280.83,140.24Z"/><path class="cls-11" d="M135.72,122.89c-.43,2-3.55,3.13-7,2.41s-5.84-3-5.41-5,3.55-3.13,7-2.41S136.15,120.84,135.72,122.89Z"/><path class="cls-11" d="M122.06,126.9c0,1.36-1.94,2.38-4.21,2.29s-4.06-1.27-4-2.63,1.94-2.39,4.21-2.29S122.12,125.54,122.06,126.9Z"/><path class="cls-11" d="M238.07,56.84c-.7.74-2.6.07-4.25-1.49s-2.43-3.42-1.73-4.15,2.6-.07,4.25,1.49S238.76,56.11,238.07,56.84Z"/><path class="cls-11" d="M211.29,83.62c-1.52.49-3.4-1.18-4.21-3.71s-.22-5,1.3-5.47,3.4,1.18,4.2,3.72S212.81,83.14,211.29,83.62Z"/><path class="cls-11" d="M203.52,76.07c-.93.48-2.31-.39-3.1-1.93s-.68-3.17.24-3.64,2.31.39,3.1,1.93S204.44,75.6,203.52,76.07Z"/><path class="cls-11" d="M74.29,219.43c-1.19.66-3.05-.41-4.16-2.39s-1-4.13.15-4.79,3,.41,4.16,2.39S75.48,218.77,74.29,219.43Z"/><path class="cls-11" d="M65.39,212c-.86.14-1.74-.91-2-2.34s.28-2.69,1.14-2.83,1.73.91,2,2.34S66.24,211.9,65.39,212Z"/><path class="cls-11" d="M51.94,154.1c-.67-.55-.46-1.9.46-3s2.22-1.57,2.88-1,.46,1.91-.46,3S52.61,154.66,51.94,154.1Z"/><path class="cls-11" d="M41.92,250.93c-2.25,1.07-5.52-1.1-7.3-4.85s-1.42-7.65.83-8.72,5.51,1.1,7.3,4.85S44.16,249.86,41.92,250.93Z"/><path class="cls-11" d="M127.06,182.84c-1.28-1.53-.72-4.12,1.26-5.78s4.62-1.77,5.91-.24.72,4.12-1.25,5.79S128.35,184.37,127.06,182.84Z"/><path class="cls-11" d="M127.86,172.08c-.19-1.2.9-2.36,2.44-2.61s2.94.52,3.13,1.71-.9,2.36-2.44,2.61S128.05,173.27,127.86,172.08Z"/><path class="cls-11" d="M141.19,174.48a1.71,1.71,0,1,1,1.9-.9A1.5,1.5,0,0,1,141.19,174.48Z"/><path class="cls-11" d="M362,240.15c.9,1.16.45,3.74-1,5.75s-3.37,2.7-4.28,1.53-.45-3.74,1-5.75S361.08,239,362,240.15Z"/><path class="cls-11" d="M361.2,248.25c.67.62.59,2.33-.18,3.83s-1.95,2.21-2.63,1.59-.59-2.33.19-3.83S360.53,247.63,361.2,248.25Z"/><path class="cls-11" d="M92,313.67c.72,1.28-.1,3.76-1.84,5.54s-3.74,2.18-4.46.89.1-3.77,1.84-5.54S91.3,312.38,92,313.67Z"/><path class="cls-11" d="M90.07,321.57c.58.71.24,2.39-.74,3.76s-2.25,1.91-2.83,1.2-.24-2.4.74-3.77S89.49,320.86,90.07,321.57Z"/><path class="cls-11" d="M334.84,278.68c0,1.42-2,3.17-4.48,3.91s-4.56.19-4.59-1.22,2-3.17,4.48-3.91S334.81,277.27,334.84,278.68Z"/><path class="cls-11" d="M238.59,345.65c1.37.37,2.49,2.78,2.5,5.4s-1.09,4.43-2.46,4.07-2.49-2.78-2.5-5.4S237.22,345.29,238.59,345.65Z"/><path class="cls-11" d="M263.16,187.44c1.6-.66,4,.6,5.43,2.82s1.22,4.56-.39,5.22-4-.6-5.43-2.82S261.55,188.1,263.16,187.44Z"/><path class="cls-11" d="M231.66,356.83c2.41-.08,5.69,2.72,7.3,6.26s1,6.47-1.45,6.56-5.69-2.72-7.31-6.25S229.24,356.92,231.66,356.83Z"/><path class="cls-11" d="M369.2,233.09c.39.48.17,2-.49,3.38s-1.53,2.13-1.92,1.65-.16-2,.5-3.38S368.81,232.61,369.2,233.09Z"/><path class="cls-11" d="M311.22,155.61c1.13-1,4-.5,6.43,1s3.46,3.61,2.33,4.58-4,.51-6.43-1.05S310.09,156.59,311.22,155.61Z"/><path class="cls-7" d="M100.86,294.32,53.17,296l-.8-21.8L98,215.14l22.82-.81L122.93,273l11.83-.42.75,20.56-11.83.42.66,17.82-22.82.81Zm-.75-20.56-1.1-30-24.1,30.9Z"/><path class="cls-5" d="M101.52,312.65a.5.5,0,0,1-.5-.48l-.64-17.33-47.2,1.66a.52.52,0,0,1-.51-.49l-.8-21.79a.5.5,0,0,1,.1-.33l45.6-59.06a.45.45,0,0,1,.37-.19l22.82-.81a.51.51,0,0,1,.52.49l2.13,58.12,11.33-.4a.5.5,0,0,1,.52.48l.75,20.56a.47.47,0,0,1-.13.36.48.48,0,0,1-.35.16l-11.33.4.64,17.33a.5.5,0,0,1-.14.35.46.46,0,0,1-.34.16l-22.82.81Zm-.66-18.83a.5.5,0,0,1,.5.48l.64,17.33,21.82-.77-.64-17.32a.51.51,0,0,1,.14-.36.46.46,0,0,1,.35-.16l11.32-.4-.71-19.56-11.33.4a.52.52,0,0,1-.52-.49l-2.13-58.12-22.09.78L52.87,274.36l.78,21.12,47.2-1.66ZM74.91,275.14a.5.5,0,0,1-.45-.27.49.49,0,0,1,.05-.53l24.11-30.91a.48.48,0,0,1,.54-.16.49.49,0,0,1,.35.45l1.1,30a.49.49,0,0,1-.13.36.52.52,0,0,1-.35.16l-25.21.88Zm23.65-30-22.6,29,23.63-.83Z"/><path class="cls-7" d="M142.57,262.56q-1-27.19,8.28-38.4t29.07-11.9q9.51-.34,15.71,1.82a29.07,29.07,0,0,1,10.19,5.83,33.26,33.26,0,0,1,6.37,7.79,41.94,41.94,0,0,1,3.92,9.67,92.33,92.33,0,0,1,3.45,22.16q1,26-7.28,38.3t-29.45,13.09q-11.9.42-19.36-3.17A31.17,31.17,0,0,1,151,296.92q-3.61-5.15-5.84-14.22A100.4,100.4,0,0,1,142.57,262.56Zm26-.85q.66,18.23,4.09,24.78t9.47,6.34a9.6,9.6,0,0,0,6.81-3.07q2.82-2.94,4-9.1t.68-19.11q-.69-19-4.12-25.43t-9.78-6.2q-6.49.22-9.14,7T168.54,261.71Z"/><path class="cls-5" d="M180.42,311.46c-6.89,0-12.66-1.09-17.17-3.25a32.1,32.1,0,0,1-12.63-11c-2.42-3.46-4.41-8.3-5.9-14.39a100.45,100.45,0,0,1-2.65-20.23c-.67-18.17,2.15-31.21,8.39-38.74s16.16-11.62,29.44-12.08c6.37-.22,11.72.4,15.89,1.85a29.46,29.46,0,0,1,10.37,5.94,33.74,33.74,0,0,1,6.46,7.9,42.8,42.8,0,0,1,4,9.79,93.24,93.24,0,0,1,3.47,22.27c.64,17.33-1.84,30.32-7.36,38.6s-15.61,12.81-29.85,13.31C182,311.45,181.22,311.46,180.42,311.46Zm-37.35-48.92a99.39,99.39,0,0,0,2.62,20c1.46,6,3.4,10.69,5.76,14.05a30.86,30.86,0,0,0,12.23,10.67c4.89,2.34,11.32,3.4,19.13,3.12,13.91-.49,23.68-4.82,29.05-12.87s7.83-20.88,7.2-38a92.4,92.4,0,0,0-3.43-22,41.43,41.43,0,0,0-3.88-9.56,32.48,32.48,0,0,0-6.27-7.67,28.66,28.66,0,0,0-10-5.73c-4.05-1.41-9.28-2-15.52-1.79-13,.45-22.65,4.4-28.71,11.72S142.41,244.62,143.07,262.54Zm38.66,30.8c-4,0-7.24-2.23-9.54-6.62s-3.7-12.83-4.15-25h0c-.44-12,.24-20.43,2-25s5.06-7.16,9.59-7.32,7.88,2,10.24,6.47,3.71,13,4.18,25.64c.32,8.63.08,15.1-.69,19.22s-2.17,7.34-4.11,9.36a10.15,10.15,0,0,1-7.15,3.22ZM169,261.69c.44,12,1.8,20.28,4,24.57s5.14,6.21,9,6.07a9.16,9.16,0,0,0,6.47-2.92c1.8-1.87,3.1-4.85,3.85-8.84s1-10.45.67-19c-.46-12.53-1.82-21-4.06-25.21s-5.26-6.08-9.33-5.94-7,2.33-8.69,6.68-2.39,12.7-2,24.59Z"/><path class="cls-5" d="M159.75,216.71l6.49,4.53h0a.27.27,0,0,1,.1.22l-.42,4.32,0-.09,2.51,2-2.64-1.86a.1.1,0,0,1,0-.09h0l.14-4.34.11.22-6.78-4.1Z"/><path class="cls-5" d="M164.21,220.18l-1.93,2.7,0,0a.1.1,0,0,1,0,0l-2.73,1.44,2.51-1.8-.08.07,1.44-3Z"/><path class="cls-5" d="M189,289.77l3.79,4.55,0,.05a.37.37,0,0,1,0,.11l1.25,5.37-2-5.15.1.16L187.74,291Z"/><polygon class="cls-5" points="190.78 292.36 198.31 290.89 191.04 293.32 190.78 292.36"/><path class="cls-7" d="M276.48,288.15l-47.69,1.67L228,268,273.58,209l22.82-.81,2.15,58.63,11.83-.42.75,20.56-11.83.42.66,17.82-22.82.8Zm-.75-20.56-1.1-30-24.1,30.9Z"/><path class="cls-5" d="M277.14,306.47a.5.5,0,0,1-.5-.48L276,288.67l-47.2,1.65a.49.49,0,0,1-.51-.48l-.8-21.79a.48.48,0,0,1,.1-.33l45.59-59.06a.47.47,0,0,1,.38-.19l22.82-.81a.51.51,0,0,1,.52.48L299,266.27l11.33-.4a.5.5,0,0,1,.52.48l.75,20.56a.53.53,0,0,1-.13.36.48.48,0,0,1-.35.16l-11.33.4.64,17.32a.51.51,0,0,1-.14.36.46.46,0,0,1-.35.16l-22.82.8Zm-.66-18.82a.5.5,0,0,1,.5.48l.64,17.33,21.82-.77-.64-17.33a.54.54,0,0,1,.14-.36.49.49,0,0,1,.34-.15l11.33-.4-.71-19.56-11.33.4a.5.5,0,0,1-.52-.49l-2.13-58.12-22.09.78-45.34,58.73.78,21.12,47.19-1.66Zm-26-18.68a.5.5,0,0,1-.45-.27.49.49,0,0,1,0-.53l24.1-30.91a.52.52,0,0,1,.55-.17.52.52,0,0,1,.35.46l1.1,30a.5.5,0,0,1-.14.36.54.54,0,0,1-.34.16l-25.21.88Zm23.65-30-22.6,29,23.63-.84Z"/><path class="cls-5" d="M274.46,238.89l6-2.91-.18.35-.86-5.74h0a.25.25,0,0,1,.1-.23l7.47-5.22,0,.1-.39-7.34.6,7.32a.13.13,0,0,1,0,.09l-7.31,5.45.1-.24,1,5.71a.33.33,0,0,1-.16.35h0l-5.86,3.21Z"/><path class="cls-5" d="M52.78,295.68l7.68-9h0a.35.35,0,0,1,.3-.11l5.54.87-.15,0,6.1-3.4-.05.07,2.7-9.48-2.49,9.53a.1.1,0,0,1,0,.06l-6,3.64a.28.28,0,0,1-.15,0h0l-5.56-.69.3-.12-7.43,9.21Z"/><path class="cls-5" d="M75.39,274.78l-2.84,9.43,0-.2,3,4.59-.09,0,7.5.1-7.5.11a.11.11,0,0,1-.09,0l-3.19-4.44a.21.21,0,0,1,0-.19h0l2.34-9.57Z"/><path class="cls-5" d="M281.44,229.33l-1.88-2.79.05,0-2.7-.89,2.76.69,0,0h0l2.47,2.28Z"/><path class="cls-10" d="M75.18,225.68c1.95-4.56,15.93-.31,19,5.34-4.77.47-11.51,4.63-16.83,3.28C74.28,233.53,73.81,228.9,75.18,225.68Z"/><path class="cls-10" d="M72,232.81c3.56-4.29,17.24,4.77,18.72,11.83-5.28-1-13.87,1.3-19.17-1.86C68.49,241,69.47,235.82,72,232.81Z"/><path class="cls-10" d="M67.35,243.49c4.93-2.6,14.11,11,12.77,18.1-4.49-3-13.31-4.11-17-9.06C61,249.69,63.88,245.32,67.35,243.49Z"/><path class="cls-10" d="M57.85,252.65c4.39.31,4.89,13.26,1,17.47-1.79-3.86-7.23-8.3-7.64-13.16C51,254.17,54.76,252.44,57.85,252.65Z"/><path class="cls-10" d="M310.91,241.51c0-5-14.52-6.54-19.56-2.54,4.2,2.31,8.77,8.78,14.2,9.62C308.66,249.08,310.91,245,310.91,241.51Z"/><path class="cls-10" d="M309.88,253c-2.15-5.14-17.88-.5-21.38,5.82,5.36.58,12.88,5.31,18.88,3.84C310.82,261.81,311.39,256.61,309.88,253Z"/><path class="cls-10" d="M311.13,261c-3.52-4.32-17.29,4.59-18.85,11.64,5.3-1,13.86,1.44,19.19-1.66C314.54,269.15,313.61,264,311.13,261Z"/><path class="cls-10" d="M317.18,277.29c-2.52-3.61-12.77,1.43-15.52,6.76,4.22-.45,10.83,3.25,15.21,1.12C319.39,283.94,319,279.83,317.18,277.29Z"/></g></g></svg>