<svg xmlns="http://www.w3.org/2000/svg" viewBox="0 0 500 500"><defs><style>.cls-1{fill:#11182a;}.cls-2{fill:#334155;opacity:0.2;}.cls-3{fill:#824292;}.cls-4{fill:#626fa0;}</style></defs><g id="Capa_2" data-name="Capa 2"><g id="Capa_1-2" data-name="Capa 1"><rect class="cls-1" width="500" height="500"/><circle class="cls-2" cx="250" cy="250" r="250"/><polygon class="cls-3" points="307.3 168.96 324.45 160.06 341.6 168.96 338.32 150.12 352.19 136.78 333.02 134.03 324.45 116.9 315.87 134.03 296.7 136.78 310.57 150.12 307.3 168.96"/><path class="cls-3" d="M188.76,210.93c8.52,14.42,17.93,28.27,29.3,40.83,7,7.72,14.57,14.79,23.52,20.34,2.35,1.46,4.17,1.67,6.74.27a276.16,276.16,0,0,0,44.46-29.58A187.3,187.3,0,0,0,321,214.54,127.75,127.75,0,0,0,333,197c.71-1.26,5-7.7,6.33-13.23-7.87,10.5-12.57,16.62-16.14,20.52-3.36,3.67-9.5,4.51-15.15,1.64-7.22-3.71-13.54-6.86-19.73-9.94l-26.11-13.22c-.37-.19-.74-.38-1.1-.55l-3-1.53c-6-3.06-9.65-2.42-12.41-1.11l-.08,0a28.34,28.34,0,0,0-5.25,2.17c-15.15,7.91-29.72,14.51-44.9,22.35-3.23,1.66-7.74-1-9.83-3.67-3-3.78-6.06-7.48-9.1-11.21l-.85-1c.37,1,1.48,3.09,2,4C181,198.59,184.77,204.82,188.76,210.93Zm59.48-6.64c12.17,0,22,11,22,24.45s-9.86,24.44-22,24.44-22-10.94-22-24.44S236.08,204.29,248.24,204.29Z"/><path class="cls-3" d="M205.63,312.21c4.86-18.26,2.18-34.7-9.24-50.14a157.94,157.94,0,0,1-17.22-28.52A94.55,94.55,0,0,1,172,208.66c-.14-1-.42-6.19-1.12-9.73-.92,3.13-.79,8.07-1.25,11.7-.7,5.5-2.84,8.37-7.31,10.58l-.63.34-73.51,37c-2,1.07-5,4.82-.55,8,18,10.09,48.15,24,73.15,35.1V360.5c0,9.39,19.29,17.55,47.75,21.78C199.6,358.69,199.44,335.49,205.63,312.21Z"/><polygon class="cls-4" points="354.91 160.75 353.48 168.96 360.95 165.08 368.42 168.96 366.99 160.75 373.03 154.94 364.69 153.75 360.95 146.28 357.22 153.75 348.87 154.94 354.91 160.75"/><path class="cls-4" d="M406,353.71l-.18-.56,0-.1L392.73,310.9a7.16,7.16,0,0,0-.71-12V267a3.66,3.66,0,0,0-7.32,0v31.83a7.17,7.17,0,0,0-.53,12.17l-13.24,42a5.82,5.82,0,0,0-.22.67v0h0a4.59,4.59,0,0,0-.17,1.17c0,5,8,9.05,17.82,9.05s17.83-4.05,17.83-9.05a4.59,4.59,0,0,0-.17-1.17Z"/><path class="cls-4" d="M411.24,257.36l-61.13-30.94,0,0c-3.25-1.6-4-3.11-3.08-6.7,3.53-13.2,3.59-26.49-.49-41.2-.71,6.64-1,11.79-1.84,16.88a112.35,112.35,0,0,1-7.42,26.14c-6.39,14.69-15.58,28-26.63,40.24-21.73,24-44.62,47.07-64.54,72.67-11.26,14.47-22.4,26.34-29.56,43.36a16.93,16.93,0,0,0-1.51,4.54c3,.31,6.11.56,9.26.78a1.75,1.75,0,0,0,.11-.24c4-10.08,9.71-19.3,16-28.16,6.46-9.08,13.05-18.06,21.14-26.7,0,5.12-.11,9.46,0,13.8.58,19.85,7.87,27.95,13.36,40.93,37.28-3.18,64.3-12.58,64.3-23.68V300.21l41.93-20.13V267.31a7.23,7.23,0,0,1,14.46,0v5.83l16.17-7.76C413.82,264.31,417.39,260.68,411.24,257.36Z"/></g></g></svg>