<svg xmlns="http://www.w3.org/2000/svg" viewBox="0 0 324.11 261.96"><defs><style>.cls-1{fill:#824292;}.cls-2{fill:#626fa0;}</style></defs><g id="Capa_2" data-name="Capa 2"><g id="Capa_1-2" data-name="Capa 1"><polygon class="cls-1" points="218.44 51.23 235.32 42.48 252.19 51.23 248.97 32.69 262.62 19.57 243.75 16.86 235.32 0 226.88 16.86 208.01 19.57 221.66 32.69 218.44 51.23"/><path class="cls-1" d="M101.79,92.53c8.39,14.19,17.65,27.82,28.84,40.18,6.88,7.59,14.33,14.56,23.14,20,2.31,1.43,4.1,1.64,6.63.27a272.76,272.76,0,0,0,43.76-29.11A185.05,185.05,0,0,0,232,96.08a124.31,124.31,0,0,0,11.76-17.26c.7-1.24,4.94-7.58,6.23-13C242.2,76.14,237.59,82.16,234.07,86c-3.31,3.61-9.35,4.44-14.91,1.62-7.11-3.66-13.32-6.76-19.41-9.79l-25.7-13L173,64.28l-3-1.51c-5.92-3-9.5-2.38-12.21-1.09l-.08,0a27.92,27.92,0,0,0-5.17,2.14c-14.91,7.78-29.25,14.28-44.18,22-3.18,1.64-7.62-1-9.67-3.61-2.93-3.72-6-7.36-9-11l-.83-1a43.86,43.86,0,0,0,2,4C94.2,80.39,97.87,86.52,101.79,92.53ZM160.33,86c12,0,21.68,10.77,21.68,24s-9.71,24.06-21.68,24.06-21.68-10.77-21.68-24.06S148.35,86,160.33,86Z"/><path class="cls-1" d="M118.39,192.2c4.78-18,2.14-34.15-9.09-49.34a154.76,154.76,0,0,1-16.94-28.07,92.89,92.89,0,0,1-7-24.49c-.14-1-.41-6.09-1.11-9.58-.9,3.08-.77,8-1.23,11.52-.68,5.41-2.79,8.24-7.19,10.41-.22.1-.41.22-.62.34L2.84,139.35c-2,1.05-4.94,4.75-.54,7.85,17.69,9.93,47.38,23.61,72,34.53v58c0,9.24,19,17.27,47,21.43C112.46,237.94,112.3,215.1,118.39,192.2Z"/><polygon class="cls-2" points="265.29 43.16 263.89 51.23 271.24 47.42 278.59 51.23 277.18 43.16 283.13 37.44 274.91 36.26 271.24 28.92 267.56 36.26 259.35 37.44 265.29 43.16"/><path class="cls-2" d="M315.6,233l-.18-.55a.29.29,0,0,0,0-.1l-12.88-41.48a7,7,0,0,0-.69-11.84V147.74a3.61,3.61,0,0,0-7.21,0v31.33a7,7,0,0,0-.52,12l-13,41.32a3.16,3.16,0,0,0-.21.66v0h0a4.51,4.51,0,0,0-.17,1.15c0,4.92,7.86,8.91,17.54,8.91s17.54-4,17.54-8.91a4.49,4.49,0,0,0-.16-1.15Z"/><path class="cls-2" d="M320.73,138.23l-60.16-30.46,0,0c-3.2-1.58-4-3.06-3-6.6,3.48-13,3.53-26.06-.49-40.54-.69,6.53-1,11.6-1.8,16.61A110.73,110.73,0,0,1,247.9,103c-6.29,14.45-15.32,27.55-26.2,39.59-21.38,23.66-43.91,46.32-63.51,71.51C147.1,228.29,136.14,240,129.1,256.73a16.21,16.21,0,0,0-1.48,4.47c3,.29,6,.55,9.11.76,0-.08.07-.15.11-.24,3.95-9.92,9.55-19,15.76-27.71,6.36-8.93,12.84-17.77,20.8-26.28,0,5.05-.11,9.32,0,13.59.57,19.53,7.74,27.5,13.15,40.28,36.68-3.13,63.28-12.38,63.28-23.31v-57.9l41.25-19.8V148a7.12,7.12,0,0,1,14.24,0v5.73l15.91-7.64C323.26,145.06,326.78,141.49,320.73,138.23Z"/></g></g></svg>